<svg width="30" height="22" viewBox="0 0 30 22" fill="none" xmlns="http://www.w3.org/2000/svg">
<path d="M30 18.5001C30 19.3841 29.6488 20.232 29.0237 20.8571C28.3986 21.4822 27.5507 21.8334 26.6667 21.8334H3.33333C2.44928 21.8334 1.60143 21.4822 0.976311 20.8571C0.351189 20.232 0 19.3841 0 18.5001V3.50008C0 2.61603 0.351189 1.76818 0.976311 1.14306C1.60143 0.517937 2.44928 0.166748 3.33333 0.166748H26.6667C27.5507 0.166748 28.3986 0.517937 29.0237 1.14306C29.6488 1.76818 30 2.61603 30 3.50008V18.5001Z" fill="#009B3A"/>
<path d="M27.2733 11.0001L15 20.2701L2.72667 11.0001L15 1.72925L27.2733 11.0001Z" fill="#FEDF01"/>
<path d="M14.98 16.3184C17.9522 16.3184 20.3617 13.909 20.3617 10.9367C20.3617 7.96454 17.9522 5.55508 14.98 5.55508C12.0078 5.55508 9.59833 7.96454 9.59833 10.9367C9.59833 13.909 12.0078 16.3184 14.98 16.3184Z" fill="#002776"/>
<path d="M10.2308 8.40592C9.95132 8.93264 9.76204 9.50247 9.67083 10.0917C13 9.85008 17.5183 11.6676 19.4575 13.9209C19.7925 13.4176 20.0408 12.8542 20.1933 12.2509C17.8 9.91091 13.5958 8.39258 10.2308 8.40592Z" fill="#CBE9D4"/>
<path d="M10 11.1942H10.8333V12.0276H10V11.1942ZM10.8333 12.8609H11.6667V13.6943H10.8333V12.8609Z" fill="#88C9F9"/>
<path d="M12.5 11.1943H13.3333V12.0276H12.5V11.1943ZM14.1667 12.0276H15V12.8609H14.1667V12.0276ZM17.5 13.6943H18.3333V14.5276H17.5V13.6943ZM15 14.5276H15.8333V15.3609H15V14.5276ZM17.5 9.52758H18.3333V10.3609H17.5V9.52758Z" fill="#55ACEE"/>
<path d="M15.8333 12.8609H16.6667V13.6943H15.8333V12.8609Z" fill="#3B88C3"/>
</svg>
