<svg width="381" height="380" viewBox="0 0 381 380" fill="none" xmlns="http://www.w3.org/2000/svg">
<path d="M238.46 365.537C238.46 357.549 231.021 351.074 221.844 351.074C212.668 351.074 205.228 357.549 205.228 365.537C205.228 373.525 212.668 380 221.844 380C231.021 380 238.46 373.525 238.46 365.537Z" fill="url(#paint0_radial_28_7)"/>
<path d="M206.962 365.537C206.962 357.549 199.523 351.074 190.346 351.074C181.169 351.074 173.73 357.549 173.73 365.537C173.73 373.525 181.169 380 190.346 380C199.523 380 206.962 373.525 206.962 365.537Z" fill="url(#paint1_radial_28_7)"/>
<path d="M76.0528 183.358V247.626C76.0528 313.163 137.088 366.291 212.379 366.291H212.395C287.686 366.291 348.721 313.163 348.721 247.626V183.358C348.721 117.821 287.686 64.693 212.395 64.693H212.379C137.088 64.693 76.0528 117.821 76.0528 183.358Z" fill="url(#paint2_radial_28_7)"/>
<path d="M76.0528 183.358V247.626C76.0528 313.163 137.088 366.291 212.379 366.291H212.395C287.686 366.291 348.721 313.163 348.721 247.626V183.358C348.721 117.821 287.686 64.693 212.395 64.693H212.379C137.088 64.693 76.0528 117.821 76.0528 183.358Z" fill="url(#paint3_linear_28_7)"/>
<path d="M76.0528 183.358V247.626C76.0528 313.163 137.088 366.291 212.379 366.291H212.395C287.686 366.291 348.721 313.163 348.721 247.626V183.358C348.721 117.821 287.686 64.693 212.395 64.693H212.379C137.088 64.693 76.0528 117.821 76.0528 183.358Z" fill="url(#paint4_radial_28_7)"/>
<path d="M76.0528 183.358V247.626C76.0528 313.163 137.088 366.291 212.379 366.291H212.395C287.686 366.291 348.721 313.163 348.721 247.626V183.358C348.721 117.821 287.686 64.693 212.395 64.693H212.379C137.088 64.693 76.0528 117.821 76.0528 183.358Z" fill="url(#paint5_radial_28_7)"/>
<path d="M130.185 237.015C129.481 237.699 128.941 238.5 128.6 239.37C128.258 240.24 128.121 241.16 128.196 242.077C128.272 242.994 128.558 243.888 129.038 244.706C129.519 245.525 130.183 246.251 130.993 246.841C131.802 247.432 132.739 247.874 133.749 248.143C134.759 248.412 135.82 248.501 136.87 248.405C137.921 248.309 138.938 248.031 139.862 247.586C140.786 247.141 141.598 246.539 142.249 245.816L130.185 237.015ZM283.127 246.392C284.656 247.575 286.655 248.194 288.699 248.118C290.743 248.041 292.673 247.275 294.08 245.981C295.486 244.687 296.259 242.967 296.234 241.186C296.209 239.405 295.389 237.702 293.947 236.439L283.127 246.392ZM142.249 245.816C175.827 210.926 235.973 207.568 283.127 246.392L293.947 236.439C241.186 192.995 170.425 195.216 130.185 237.015L142.249 245.816Z" fill="#3A94E7"/>
<path d="M130.185 237.015C129.481 237.699 128.941 238.5 128.6 239.37C128.258 240.24 128.121 241.16 128.196 242.077C128.272 242.994 128.558 243.888 129.038 244.706C129.519 245.525 130.183 246.251 130.993 246.841C131.802 247.432 132.739 247.874 133.749 248.143C134.759 248.412 135.82 248.501 136.87 248.405C137.921 248.309 138.938 248.031 139.862 247.586C140.786 247.141 141.598 246.539 142.249 245.816L130.185 237.015ZM283.127 246.392C284.656 247.575 286.655 248.194 288.699 248.118C290.743 248.041 292.673 247.275 294.08 245.981C295.486 244.687 296.259 242.967 296.234 241.186C296.209 239.405 295.389 237.702 293.947 236.439L283.127 246.392ZM142.249 245.816C175.827 210.926 235.973 207.568 283.127 246.392L293.947 236.439C241.186 192.995 170.425 195.216 130.185 237.015L142.249 245.816Z" fill="#3F61E7"/>
<path d="M130.185 237.015C129.481 237.699 128.941 238.5 128.6 239.37C128.258 240.24 128.121 241.16 128.196 242.077C128.272 242.994 128.558 243.888 129.038 244.706C129.519 245.525 130.183 246.251 130.993 246.841C131.802 247.432 132.739 247.874 133.749 248.143C134.759 248.412 135.82 248.501 136.87 248.405C137.921 248.309 138.938 248.031 139.862 247.586C140.786 247.141 141.598 246.539 142.249 245.816L130.185 237.015ZM283.127 246.392C284.656 247.575 286.655 248.194 288.699 248.118C290.743 248.041 292.673 247.275 294.08 245.981C295.486 244.687 296.259 242.967 296.234 241.186C296.209 239.405 295.389 237.702 293.947 236.439L283.127 246.392ZM142.249 245.816C175.827 210.926 235.973 207.568 283.127 246.392L293.947 236.439C241.186 192.995 170.425 195.216 130.185 237.015L142.249 245.816Z" fill="url(#paint6_radial_28_7)"/>
<path d="M130.185 237.015C129.481 237.699 128.941 238.5 128.6 239.37C128.258 240.24 128.121 241.16 128.196 242.077C128.272 242.994 128.558 243.888 129.038 244.706C129.519 245.525 130.183 246.251 130.993 246.841C131.802 247.432 132.739 247.874 133.749 248.143C134.759 248.412 135.82 248.501 136.87 248.405C137.921 248.309 138.938 248.031 139.862 247.586C140.786 247.141 141.598 246.539 142.249 245.816L130.185 237.015ZM283.127 246.392C284.656 247.575 286.655 248.194 288.699 248.118C290.743 248.041 292.673 247.275 294.08 245.981C295.486 244.687 296.259 242.967 296.234 241.186C296.209 239.405 295.389 237.702 293.947 236.439L283.127 246.392ZM142.249 245.816C175.827 210.926 235.973 207.568 283.127 246.392L293.947 236.439C241.186 192.995 170.425 195.216 130.185 237.015L142.249 245.816Z" fill="url(#paint7_radial_28_7)"/>
<path d="M130.185 237.015C129.481 237.699 128.941 238.5 128.6 239.37C128.258 240.24 128.121 241.16 128.196 242.077C128.272 242.994 128.558 243.888 129.038 244.706C129.519 245.525 130.183 246.251 130.993 246.841C131.802 247.432 132.739 247.874 133.749 248.143C134.759 248.412 135.82 248.501 136.87 248.405C137.921 248.309 138.938 248.031 139.862 247.586C140.786 247.141 141.598 246.539 142.249 245.816L130.185 237.015ZM283.127 246.392C284.656 247.575 286.655 248.194 288.699 248.118C290.743 248.041 292.673 247.275 294.08 245.981C295.486 244.687 296.259 242.967 296.234 241.186C296.209 239.405 295.389 237.702 293.947 236.439L283.127 246.392ZM142.249 245.816C175.827 210.926 235.973 207.568 283.127 246.392L293.947 236.439C241.186 192.995 170.425 195.216 130.185 237.015L142.249 245.816Z" fill="url(#paint8_radial_28_7)"/>
<path d="M190.896 288.424C190.896 284.639 187.371 281.57 183.022 281.57C178.673 281.57 175.147 284.639 175.147 288.424C175.147 292.21 178.673 295.279 183.022 295.279C187.371 295.279 190.896 292.21 190.896 288.424Z" fill="url(#paint9_radial_28_7)"/>
<path d="M190.896 288.424C190.896 284.639 187.371 281.57 183.022 281.57C178.673 281.57 175.147 284.639 175.147 288.424C175.147 292.21 178.673 295.279 183.022 295.279C187.371 295.279 190.896 292.21 190.896 288.424Z" fill="url(#paint10_radial_28_7)"/>
<path d="M190.896 288.424C190.896 284.639 187.371 281.57 183.022 281.57C178.673 281.57 175.147 284.639 175.147 288.424C175.147 292.21 178.673 295.279 183.022 295.279C187.371 295.279 190.896 292.21 190.896 288.424Z" fill="url(#paint11_linear_28_7)"/>
<path d="M287.678 64.6928C304.386 64.6928 320.409 58.9154 332.223 48.6317C344.038 38.3479 350.675 24.4002 350.675 9.85677V6.8545C350.675 5.03657 349.845 3.2931 348.369 2.00763C346.892 0.722163 344.889 0 342.8 0H275.866C259.158 0 243.134 5.77736 231.32 16.0611C219.506 26.3449 212.868 40.2926 212.868 54.836V64.6928H287.678Z" fill="url(#paint12_radial_28_7)"/>
<path d="M287.678 64.6928C304.386 64.6928 320.409 58.9154 332.223 48.6317C344.038 38.3479 350.675 24.4002 350.675 9.85677V6.8545C350.675 5.03657 349.845 3.2931 348.369 2.00763C346.892 0.722163 344.889 0 342.8 0H275.866C259.158 0 243.134 5.77736 231.32 16.0611C219.506 26.3449 212.868 40.2926 212.868 54.836V64.6928H287.678Z" fill="url(#paint13_radial_28_7)"/>
<path d="M287.678 64.6928C304.386 64.6928 320.409 58.9154 332.223 48.6317C344.038 38.3479 350.675 24.4002 350.675 9.85677V6.8545C350.675 5.03657 349.845 3.2931 348.369 2.00763C346.892 0.722163 344.889 0 342.8 0H275.866C259.158 0 243.134 5.77736 231.32 16.0611C219.506 26.3449 212.868 40.2926 212.868 54.836V64.6928H287.678Z" fill="url(#paint14_linear_28_7)"/>
<path d="M287.678 64.6928C304.386 64.6928 320.409 58.9154 332.223 48.6317C344.038 38.3479 350.675 24.4002 350.675 9.85677V6.8545C350.675 5.03657 349.845 3.2931 348.369 2.00763C346.892 0.722163 344.889 0 342.8 0H275.866C259.158 0 243.134 5.77736 231.32 16.0611C219.506 26.3449 212.868 40.2926 212.868 54.836V64.6928H287.678Z" fill="url(#paint15_radial_28_7)"/>
<path d="M138.06 64.6928C121.352 64.6928 105.329 58.9154 93.5143 48.6317C81.7 38.3479 75.0628 24.4002 75.0628 9.85677V6.8545C75.0628 5.03657 75.8924 3.2931 77.3692 2.00763C78.846 0.722163 80.8489 0 82.9374 0L149.872 0C166.58 0 182.604 5.77736 194.418 16.0611C206.232 26.3449 212.869 40.2926 212.869 54.836V64.6928H138.06Z" fill="url(#paint16_radial_28_7)"/>
<path d="M138.06 64.6928C121.352 64.6928 105.329 58.9154 93.5143 48.6317C81.7 38.3479 75.0628 24.4002 75.0628 9.85677V6.8545C75.0628 5.03657 75.8924 3.2931 77.3692 2.00763C78.846 0.722163 80.8489 0 82.9374 0L149.872 0C166.58 0 182.604 5.77736 194.418 16.0611C206.232 26.3449 212.869 40.2926 212.869 54.836V64.6928H138.06Z" fill="url(#paint17_radial_28_7)"/>
<path d="M138.06 64.6928C121.352 64.6928 105.329 58.9154 93.5143 48.6317C81.7 38.3479 75.0628 24.4002 75.0628 9.85677V6.8545C75.0628 5.03657 75.8924 3.2931 77.3692 2.00763C78.846 0.722163 80.8489 0 82.9374 0L149.872 0C166.58 0 182.604 5.77736 194.418 16.0611C206.232 26.3449 212.869 40.2926 212.869 54.836V64.6928H138.06Z" fill="url(#paint18_radial_28_7)"/>
<path d="M348.708 199.452C348.708 186.059 361.166 175.215 376.537 175.215C376.994 175.215 377.445 175.293 377.867 175.446C378.288 175.598 378.671 175.822 378.993 176.103C379.315 176.385 379.57 176.719 379.743 177.086C379.916 177.454 380.004 177.847 380.002 178.245V202.372C380.004 205.951 379.196 209.496 377.625 212.803C376.053 216.11 373.749 219.116 370.843 221.648C367.937 224.18 364.487 226.189 360.689 227.56C356.891 228.931 352.82 229.638 348.708 229.64V199.452Z" fill="url(#paint19_radial_28_7)"/>
<path d="M348.708 199.452C348.708 186.059 361.166 175.215 376.537 175.215C376.994 175.215 377.445 175.293 377.867 175.446C378.288 175.598 378.671 175.822 378.993 176.103C379.315 176.385 379.57 176.719 379.743 177.086C379.916 177.454 380.004 177.847 380.002 178.245V202.372C380.004 205.951 379.196 209.496 377.625 212.803C376.053 216.11 373.749 219.116 370.843 221.648C367.937 224.18 364.487 226.189 360.689 227.56C356.891 228.931 352.82 229.638 348.708 229.64V199.452Z" fill="url(#paint20_linear_28_7)"/>
<path d="M348.708 199.452C348.708 186.059 361.166 175.215 376.537 175.215C376.994 175.215 377.445 175.293 377.867 175.446C378.288 175.598 378.671 175.822 378.993 176.103C379.315 176.385 379.57 176.719 379.743 177.086C379.916 177.454 380.004 177.847 380.002 178.245V202.372C380.004 205.951 379.196 209.496 377.625 212.803C376.053 216.11 373.749 219.116 370.843 221.648C367.937 224.18 364.487 226.189 360.689 227.56C356.891 228.931 352.82 229.638 348.708 229.64V199.452Z" fill="url(#paint21_radial_28_7)"/>
<path d="M76.0535 164.083C76.0535 149.54 69.4163 135.592 57.602 125.308C45.7877 115.025 29.7641 109.247 13.0562 109.247H7.87466C5.78617 109.247 3.78321 109.969 2.30643 111.255C0.829643 112.54 0 114.284 0 116.102V186.566C0 201.109 6.63719 215.057 18.4515 225.341C30.2658 235.625 46.2894 241.402 62.9973 241.402H76.0535V164.083Z" fill="url(#paint22_radial_28_7)"/>
<path d="M76.0535 164.083C76.0535 149.54 69.4163 135.592 57.602 125.308C45.7877 115.025 29.7641 109.247 13.0562 109.247H7.87466C5.78617 109.247 3.78321 109.969 2.30643 111.255C0.829643 112.54 0 114.284 0 116.102V186.566C0 201.109 6.63719 215.057 18.4515 225.341C30.2658 235.625 46.2894 241.402 62.9973 241.402H76.0535V164.083Z" fill="url(#paint23_linear_28_7)"/>
<path d="M76.0535 164.083C76.0535 149.54 69.4163 135.592 57.602 125.308C45.7877 115.025 29.7641 109.247 13.0562 109.247H7.87466C5.78617 109.247 3.78321 109.969 2.30643 111.255C0.829643 112.54 0 114.284 0 116.102V186.566C0 201.109 6.63719 215.057 18.4515 225.341C30.2658 235.625 46.2894 241.402 62.9973 241.402H76.0535V164.083Z" fill="url(#paint24_radial_28_7)"/>
<defs>
<radialGradient id="paint0_radial_28_7" cx="0" cy="0" r="1" gradientUnits="userSpaceOnUse" gradientTransform="translate(219.561 128.227) rotate(150.684) scale(209.775 287.053)">
<stop stop-color="#3AAEE7"/>
<stop offset="1" stop-color="#45A5E8"/>
</radialGradient>
<radialGradient id="paint1_radial_28_7" cx="0" cy="0" r="1" gradientUnits="userSpaceOnUse" gradientTransform="translate(219.371 128.277) rotate(150.684) scale(209.775 287.053)">
<stop stop-color="#3AAEE7"/>
<stop offset="1" stop-color="#45A5E8"/>
</radialGradient>
<radialGradient id="paint2_radial_28_7" cx="0" cy="0" r="1" gradientUnits="userSpaceOnUse" gradientTransform="translate(138.183 116.592) rotate(58.5301) scale(376.36 454.346)">
<stop stop-color="#50CAFF"/>
<stop offset="1" stop-color="#4D7FFF"/>
</radialGradient>
<linearGradient id="paint3_linear_28_7" x1="190.001" y1="410.158" x2="190.001" y2="301.796" gradientUnits="userSpaceOnUse">
<stop stop-color="#508BFF"/>
<stop offset="1" stop-color="#508BFF" stop-opacity="0"/>
</linearGradient>
<radialGradient id="paint4_radial_28_7" cx="0" cy="0" r="1" gradientUnits="userSpaceOnUse" gradientTransform="translate(47.5003 17.8224) rotate(60.5128) scale(263.182 272.339)">
<stop stop-color="#50CAFF"/>
<stop offset="1" stop-color="#50CAFF" stop-opacity="0"/>
</radialGradient>
<radialGradient id="paint5_radial_28_7" cx="0" cy="0" r="1" gradientUnits="userSpaceOnUse" gradientTransform="translate(397.276 406.037) rotate(-137.59) scale(504.435 447.378)">
<stop offset="0.935" stop-color="#59C0E7" stop-opacity="0"/>
<stop offset="1" stop-color="#59C0E7"/>
</radialGradient>
<radialGradient id="paint6_radial_28_7" cx="0" cy="0" r="1" gradientUnits="userSpaceOnUse" gradientTransform="translate(36.9148 374.257) rotate(-20.9162) scale(117.675 45.5913)">
<stop stop-color="#4A8CFF"/>
<stop offset="0.609" stop-color="#4A8CFF" stop-opacity="0"/>
</radialGradient>
<radialGradient id="paint7_radial_28_7" cx="0" cy="0" r="1" gradientUnits="userSpaceOnUse" gradientTransform="translate(53.727 15.4038) rotate(17.6057) scale(109.459 37.6889)">
<stop stop-color="#4A8CFF"/>
<stop offset="0.609" stop-color="#4A8CFF" stop-opacity="0"/>
</radialGradient>
<radialGradient id="paint8_radial_28_7" cx="0" cy="0" r="1" gradientUnits="userSpaceOnUse" gradientTransform="translate(190.729 190.397) scale(196.419 119.075)">
<stop offset="0.203" stop-color="#4F7FE6"/>
<stop offset="1" stop-color="#4F7FE6" stop-opacity="0"/>
</radialGradient>
<radialGradient id="paint9_radial_28_7" cx="0" cy="0" r="1" gradientUnits="userSpaceOnUse" gradientTransform="translate(246.241 129.2) rotate(125.838) scale(263.668 235.073)">
<stop offset="0.006" stop-color="#433437"/>
<stop offset="1" stop-color="#3B2838"/>
</radialGradient>
<radialGradient id="paint10_radial_28_7" cx="0" cy="0" r="1" gradientUnits="userSpaceOnUse" gradientTransform="translate(260.696 142.469) rotate(137.643) scale(136.595 120.172)">
<stop stop-color="#5C5051"/>
<stop offset="1" stop-color="#5C5051" stop-opacity="0"/>
</radialGradient>
<linearGradient id="paint11_linear_28_7" x1="152.381" y1="41.04" x2="22.0406" y2="-42.1807" gradientUnits="userSpaceOnUse">
<stop stop-color="#5C5051" stop-opacity="0"/>
<stop offset="1" stop-color="#5C5051"/>
</linearGradient>
<radialGradient id="paint12_radial_28_7" cx="0" cy="0" r="1" gradientUnits="userSpaceOnUse" gradientTransform="translate(271.775 59.7143) rotate(88.1999) scale(320.444 601.333)">
<stop stop-color="#46AAFF"/>
<stop offset="1" stop-color="#368AFF"/>
</radialGradient>
<radialGradient id="paint13_radial_28_7" cx="0" cy="0" r="1" gradientUnits="userSpaceOnUse" gradientTransform="translate(629.14 57.0048) rotate(151.883) scale(616.273 841.852)">
<stop offset="0.801" stop-color="#3184E6" stop-opacity="0"/>
<stop offset="1" stop-color="#3184E6"/>
</radialGradient>
<linearGradient id="paint14_linear_28_7" x1="1082.11" y1="268.736" x2="0" y2="268.736" gradientUnits="userSpaceOnUse">
<stop offset="0.849" stop-color="#3184E6" stop-opacity="0"/>
<stop offset="1" stop-color="#3184E6"/>
</linearGradient>
<radialGradient id="paint15_radial_28_7" cx="0" cy="0" r="1" gradientUnits="userSpaceOnUse" gradientTransform="translate(380.002 76) rotate(90) scale(304 238.593)">
<stop stop-color="#54BDFF"/>
<stop offset="0.923" stop-color="#54BDFF" stop-opacity="0"/>
</radialGradient>
<radialGradient id="paint16_radial_28_7" cx="0" cy="0" r="1" gradientUnits="userSpaceOnUse" gradientTransform="translate(300.04 41.9086) rotate(123.138) scale(419.993 448.468)">
<stop stop-color="#46AAFF"/>
<stop offset="1" stop-color="#368AFF"/>
</radialGradient>
<radialGradient id="paint17_radial_28_7" cx="0" cy="0" r="1" gradientUnits="userSpaceOnUse" gradientTransform="translate(659.347 233.429) rotate(-171.888) scale(711.724 661.33)">
<stop offset="0.726" stop-color="#3184E6" stop-opacity="0"/>
<stop offset="1" stop-color="#3184E6"/>
</radialGradient>
<radialGradient id="paint18_radial_28_7" cx="0" cy="0" r="1" gradientUnits="userSpaceOnUse" gradientTransform="translate(380.002 20.368) rotate(90) scale(274.143 93.8442)">
<stop stop-color="#54BDFF"/>
<stop offset="0.923" stop-color="#54BDFF" stop-opacity="0"/>
</radialGradient>
<radialGradient id="paint19_radial_28_7" cx="0" cy="0" r="1" gradientUnits="userSpaceOnUse" gradientTransform="translate(260.354 286.864) rotate(-139.173) scale(292.522 281.861)">
<stop stop-color="#4286FF"/>
<stop offset="1" stop-color="#3170FF"/>
</radialGradient>
<linearGradient id="paint20_linear_28_7" x1="212.495" y1="-89.6929" x2="224.305" y2="98.1253" gradientUnits="userSpaceOnUse">
<stop stop-color="#0E66FD"/>
<stop offset="1" stop-color="#0E66FD" stop-opacity="0"/>
</linearGradient>
<radialGradient id="paint21_radial_28_7" cx="0" cy="0" r="1" gradientUnits="userSpaceOnUse" gradientTransform="translate(408.357 346.783) rotate(-135.737) scale(342.501 171.752)">
<stop stop-color="#519DFF"/>
<stop offset="0.969" stop-color="#519DFF" stop-opacity="0"/>
</radialGradient>
<radialGradient id="paint22_radial_28_7" cx="0" cy="0" r="1" gradientUnits="userSpaceOnUse" gradientTransform="translate(338.139 79.9503) rotate(138.42) scale(452.053 299.887)">
<stop stop-color="#46AAFF"/>
<stop offset="1" stop-color="#2B86D9"/>
</radialGradient>
<linearGradient id="paint23_linear_28_7" x1="-0.0394211" y1="441.458" x2="-0.0394211" y2="284.075" gradientUnits="userSpaceOnUse">
<stop offset="0.109" stop-color="#0A75CC"/>
<stop offset="1" stop-color="#0A75CC" stop-opacity="0"/>
</linearGradient>
<radialGradient id="paint24_radial_28_7" cx="0" cy="0" r="1" gradientUnits="userSpaceOnUse" gradientTransform="translate(-5.654 102.393) rotate(49.3921) scale(75.6162 24.5496)">
<stop stop-color="#54BDFF"/>
<stop offset="0.644" stop-color="#54BDFF" stop-opacity="0"/>
</radialGradient>
</defs>
</svg>
